<svg width="491" height="146" viewBox="0 0 491 146" fill="none" xmlns="http://www.w3.org/2000/svg">
<rect width="491" height="146" fill="#1A1A1A"/>
<path d="M67.12 22H49.12V90.64C49.12 98.8 48.52 101.2 44.56 101.2C40.6 101.2 40 98.8 40 90.64V84.64H22V91.84C22 111.16 30.04 119.2 44.56 119.2C59.08 119.2 67.12 111.16 67.12 91.84V22Z" fill="#62B4FF"/>
<path d="M115.898 106.48V63.76C115.898 46.84 109.178 38.8 93.4581 38.8C77.7381 38.8 70.7781 46.84 70.7781 63.76V66.16H88.7781V63.76C88.7781 58 89.9781 55.6 93.4581 55.6C96.6981 55.6 97.8981 56.8 97.8981 61.24C97.7781 73.96 69.5781 71.32 69.5781 98.92C69.5781 113.08 76.6581 119.2 84.6981 119.2C91.5381 119.2 95.1381 116.08 97.8981 109.24C97.8981 111.4 98.4981 116.2 101.498 118H117.098C115.898 114.16 115.898 111.52 115.898 106.48ZM97.8981 99.4C96.6981 100.84 95.0181 102.4 92.6181 102.4C89.6181 102.4 87.5781 100.36 87.5781 95.68C87.5781 88.36 94.1781 85.96 97.8981 80.56V99.4Z" fill="#62B4FF"/>
<path d="M176.86 38.8C169.78 38.8 164.5 44.08 162.46 49.36C161.02 42.28 157.78 38.8 150.94 38.8C143.62 38.8 139.42 44.44 137.5 48.76V40H119.5V118H137.5V62.56C137.5 56.8 139.06 55.6 141.46 55.6C143.86 55.6 145.42 56.8 145.42 62.56V118H163.42V63.76V62.56C163.42 56.8 164.98 55.6 167.38 55.6C169.78 55.6 171.34 56.8 171.34 62.56V118H189.34V63.76C189.34 46.84 187.3 38.8 176.86 38.8Z" fill="#62B4FF"/>
<path d="M221.808 72.52C212.448 65.68 209.688 64.24 209.688 60.16C209.688 58 210.648 55.6 213.408 55.6C216.168 55.6 217.607 58 217.607 64.96H235.607C235.607 48.04 228.528 38.8 213.408 38.8C198.288 38.8 191.688 48.04 191.688 60.16C191.688 72.88 199.247 77.8 206.688 82.96C217.608 90.52 218.808 93.04 218.808 96.64C218.808 100 218.088 102.4 214.728 102.4C211.368 102.4 209.688 100 209.688 90.64H191.688C191.688 112.36 199.008 119.2 214.728 119.2C230.448 119.2 236.808 109.96 236.808 96.64C236.808 84.52 230.928 79.24 221.808 72.52Z" fill="#62B4FF"/>
<path d="M239.266 91.84C239.266 111.16 247.306 119.2 261.826 119.2C276.346 119.2 284.386 111.16 284.386 91.84V66.16C284.386 46.84 276.346 38.8 261.826 38.8C247.306 38.8 239.266 46.84 239.266 66.16V91.84ZM257.266 91.84V66.16C257.266 58 257.866 55.6 261.826 55.6C265.666 55.6 266.386 58 266.386 66.16V91.84C266.386 100 265.786 102.4 261.826 102.4C257.866 102.4 257.266 100 257.266 91.84Z" fill="#62B4FF"/>
<path d="M313.964 70.6H331.964V66.16C331.964 46.84 323.924 38.8 309.404 38.8C294.884 38.8 286.844 46.84 286.844 66.16V91.84C286.844 111.16 294.884 119.2 309.404 119.2C323.924 119.2 331.964 111.16 331.964 91.84V87.4H313.964V91.84C313.964 100 313.364 102.4 309.404 102.4C305.444 102.4 304.844 100 304.844 91.84V66.16C304.844 58 305.444 55.6 309.404 55.6C313.244 55.6 313.964 58 313.964 66.16V70.6Z" fill="#62B4FF"/>
<path d="M334.422 22V118H352.422V22H334.422Z" fill="#62B4FF"/>
<path d="M464 56.8V40H444.8C451.16 38.44 453.2 30.16 453.2 22H435.2C435.32 29.44 433.88 37.96 426.8 40V56.8H434V91.84C434 111.16 437.24 118 454.16 118H464V101.2H458.96C454.4 101.2 452 100 452 91.84V56.8H464Z" fill="#62B4FF"/>
<path fill-rule="evenodd" clip-rule="evenodd" d="M363.46 40H382.06L370.18 79L382.06 118H363.46L352.3 79L363.46 40ZM420.9 40H420.3H402.3H384.3V58H407.783L411.438 70H384.3V88H411.438L407.783 100H384.3V118H402.3H420.3H420.9L432.06 79L420.9 40Z" fill="#F5F4F4"/>
</svg>
